<svg xmlns="http://www.w3.org/2000/svg" xmlns:xlink="http://www.w3.org/1999/xlink" width="500" zoomAndPan="magnify" viewBox="0 0 375 56.249996" height="75" preserveAspectRatio="xMidYMid meet" version="1.0"><defs><g/></defs><g fill="#000000" fill-opacity="1"><g transform="translate(41.310921, 45.888151)"><g><path d="M 15.921875 -13.578125 L 14.234375 0 L 9.8125 0 L 11.484375 -13.53125 L 2.53125 -33.9375 L 6.4375 -33.9375 C 6.832031 -33.9375 7.140625 -33.84375 7.359375 -33.65625 C 7.585938 -33.46875 7.753906 -33.21875 7.859375 -32.90625 L 13.484375 -19.3125 C 13.773438 -18.40625 14.007812 -17.550781 14.1875 -16.75 C 14.375 -17.15625 14.582031 -17.566406 14.8125 -17.984375 C 15.039062 -18.410156 15.289062 -18.851562 15.5625 -19.3125 L 24.5625 -32.90625 C 24.738281 -33.175781 24.957031 -33.414062 25.21875 -33.625 C 25.476562 -33.832031 25.796875 -33.9375 26.171875 -33.9375 L 29.84375 -33.9375 Z M 15.921875 -13.578125 "/></g></g></g><g fill="#000000" fill-opacity="1"><g transform="translate(68.879396, 45.888151)"><g><path d="M 13.640625 -16.25 C 14.984375 -16.25 16.164062 -16.453125 17.1875 -16.859375 C 18.21875 -17.273438 19.082031 -17.847656 19.78125 -18.578125 C 20.476562 -19.316406 21.003906 -20.191406 21.359375 -21.203125 C 21.722656 -22.222656 21.90625 -23.335938 21.90625 -24.546875 C 21.90625 -25.460938 21.769531 -26.28125 21.5 -27 C 21.238281 -27.726562 20.835938 -28.347656 20.296875 -28.859375 C 19.765625 -29.378906 19.085938 -29.773438 18.265625 -30.046875 C 17.441406 -30.328125 16.484375 -30.46875 15.390625 -30.46875 L 10.46875 -30.46875 L 8.71875 -16.25 Z M 15.828125 -33.9375 C 17.628906 -33.9375 19.191406 -33.722656 20.515625 -33.296875 C 21.835938 -32.878906 22.925781 -32.273438 23.78125 -31.484375 C 24.644531 -30.691406 25.289062 -29.742188 25.71875 -28.640625 C 26.144531 -27.535156 26.359375 -26.300781 26.359375 -24.9375 C 26.359375 -23.15625 26.066406 -21.519531 25.484375 -20.03125 C 24.898438 -18.539062 24.050781 -17.253906 22.9375 -16.171875 C 21.820312 -15.097656 20.445312 -14.257812 18.8125 -13.65625 C 17.1875 -13.050781 15.320312 -12.75 13.21875 -12.75 L 8.296875 -12.75 L 6.734375 0 L 2.328125 0 L 6.46875 -33.9375 Z M 15.828125 -33.9375 "/></g></g></g><g fill="#000000" fill-opacity="1"><g transform="translate(95.500504, 45.888151)"><g/></g></g><g fill="#000000" fill-opacity="1"><g transform="translate(106.584734, 45.888151)"><g><path d="M 31.78125 -19.359375 C 31.78125 -16.460938 31.332031 -13.828125 30.4375 -11.453125 C 29.550781 -9.078125 28.316406 -7.039062 26.734375 -5.34375 C 25.160156 -3.644531 23.285156 -2.328125 21.109375 -1.390625 C 18.941406 -0.460938 16.578125 0 14.015625 0 L 2.328125 0 L 6.484375 -33.9375 L 18.21875 -33.9375 C 20.300781 -33.9375 22.175781 -33.582031 23.84375 -32.875 C 25.519531 -32.164062 26.945312 -31.164062 28.125 -29.875 C 29.300781 -28.59375 30.203125 -27.054688 30.828125 -25.265625 C 31.460938 -23.472656 31.78125 -21.503906 31.78125 -19.359375 Z M 27.21875 -19.265625 C 27.21875 -20.960938 27.003906 -22.5 26.578125 -23.875 C 26.148438 -25.25 25.53125 -26.410156 24.71875 -27.359375 C 23.90625 -28.316406 22.914062 -29.050781 21.75 -29.5625 C 20.582031 -30.082031 19.265625 -30.34375 17.796875 -30.34375 L 10.515625 -30.34375 L 7.203125 -3.578125 L 14.46875 -3.578125 C 16.351562 -3.578125 18.078125 -3.9375 19.640625 -4.65625 C 21.203125 -5.375 22.539062 -6.40625 23.65625 -7.75 C 24.78125 -9.101562 25.65625 -10.75 26.28125 -12.6875 C 26.90625 -14.625 27.21875 -16.816406 27.21875 -19.265625 Z M 27.21875 -19.265625 "/></g></g></g><g fill="#000000" fill-opacity="1"><g transform="translate(140.097955, 45.888151)"><g><path d="M 20.53125 -12.578125 L 17.4375 -26.625 C 17.351562 -27.050781 17.253906 -27.546875 17.140625 -28.109375 C 17.035156 -28.671875 16.941406 -29.273438 16.859375 -29.921875 C 16.628906 -29.253906 16.394531 -28.644531 16.15625 -28.09375 C 15.914062 -27.539062 15.703125 -27.039062 15.515625 -26.59375 L 8.953125 -12.578125 Z M 27.90625 0 L 24.5 0 C 24.101562 0 23.789062 -0.0976562 23.5625 -0.296875 C 23.34375 -0.492188 23.1875 -0.75 23.09375 -1.0625 L 21.25 -9.359375 L 7.4375 -9.359375 L 3.546875 -1.0625 C 3.410156 -0.78125 3.195312 -0.53125 2.90625 -0.3125 C 2.613281 -0.101562 2.285156 0 1.921875 0 L -1.546875 0 L 15.09375 -33.9375 L 19.59375 -33.9375 Z M 27.90625 0 "/></g></g></g><g fill="#000000" fill-opacity="1"><g transform="translate(169.987484, 45.888151)"><g><path d="M 27.09375 -30.21875 L 17.109375 -30.21875 L 13.359375 0 L 8.953125 0 L 12.65625 -30.21875 L 2.609375 -30.21875 L 3.03125 -33.9375 L 27.546875 -33.9375 Z M 27.09375 -30.21875 "/></g></g></g><g fill="#000000" fill-opacity="1"><g transform="translate(195.850696, 45.888151)"><g><path d="M 20.53125 -12.578125 L 17.4375 -26.625 C 17.351562 -27.050781 17.253906 -27.546875 17.140625 -28.109375 C 17.035156 -28.671875 16.941406 -29.273438 16.859375 -29.921875 C 16.628906 -29.253906 16.394531 -28.644531 16.15625 -28.09375 C 15.914062 -27.539062 15.703125 -27.039062 15.515625 -26.59375 L 8.953125 -12.578125 Z M 27.90625 0 L 24.5 0 C 24.101562 0 23.789062 -0.0976562 23.5625 -0.296875 C 23.34375 -0.492188 23.1875 -0.75 23.09375 -1.0625 L 21.25 -9.359375 L 7.4375 -9.359375 L 3.546875 -1.0625 C 3.410156 -0.78125 3.195312 -0.53125 2.90625 -0.3125 C 2.613281 -0.101562 2.285156 0 1.921875 0 L -1.546875 0 L 15.09375 -33.9375 L 19.59375 -33.9375 Z M 27.90625 0 "/></g></g></g><g fill="#000000" fill-opacity="1"><g transform="translate(225.740225, 45.888151)"><g><path d="M 13.828125 -3.5 C 15.097656 -3.5 16.207031 -3.664062 17.15625 -4 C 18.101562 -4.332031 18.882812 -4.804688 19.5 -5.421875 C 20.125 -6.035156 20.59375 -6.773438 20.90625 -7.640625 C 21.226562 -8.515625 21.390625 -9.5 21.390625 -10.59375 C 21.390625 -12.09375 20.882812 -13.285156 19.875 -14.171875 C 18.875 -15.066406 17.347656 -15.515625 15.296875 -15.515625 L 8.640625 -15.515625 L 7.171875 -3.5 Z M 10.5 -30.46875 L 9.046875 -18.640625 L 14.515625 -18.640625 C 15.796875 -18.640625 16.914062 -18.804688 17.875 -19.140625 C 18.832031 -19.484375 19.628906 -19.957031 20.265625 -20.5625 C 20.898438 -21.175781 21.375 -21.910156 21.6875 -22.765625 C 22.007812 -23.617188 22.171875 -24.554688 22.171875 -25.578125 C 22.171875 -27.203125 21.679688 -28.421875 20.703125 -29.234375 C 19.722656 -30.054688 18.207031 -30.46875 16.15625 -30.46875 Z M 16.5625 -33.9375 C 18.3125 -33.9375 19.820312 -33.757812 21.09375 -33.40625 C 22.363281 -33.050781 23.410156 -32.546875 24.234375 -31.890625 C 25.054688 -31.234375 25.664062 -30.4375 26.0625 -29.5 C 26.457031 -28.5625 26.65625 -27.515625 26.65625 -26.359375 C 26.65625 -25.367188 26.503906 -24.410156 26.203125 -23.484375 C 25.910156 -22.554688 25.476562 -21.707031 24.90625 -20.9375 C 24.332031 -20.164062 23.601562 -19.476562 22.71875 -18.875 C 21.84375 -18.28125 20.820312 -17.800781 19.65625 -17.4375 C 21.695312 -16.976562 23.222656 -16.179688 24.234375 -15.046875 C 25.253906 -13.910156 25.765625 -12.445312 25.765625 -10.65625 C 25.765625 -9.09375 25.484375 -7.660156 24.921875 -6.359375 C 24.367188 -5.054688 23.5625 -3.929688 22.5 -2.984375 C 21.445312 -2.035156 20.15625 -1.300781 18.625 -0.78125 C 17.101562 -0.257812 15.390625 0 13.484375 0 L 2.328125 0 L 6.484375 -33.9375 Z M 16.5625 -33.9375 "/></g></g></g><g fill="#000000" fill-opacity="1"><g transform="translate(254.256068, 45.888151)"><g><path d="M 20.53125 -12.578125 L 17.4375 -26.625 C 17.351562 -27.050781 17.253906 -27.546875 17.140625 -28.109375 C 17.035156 -28.671875 16.941406 -29.273438 16.859375 -29.921875 C 16.628906 -29.253906 16.394531 -28.644531 16.15625 -28.09375 C 15.914062 -27.539062 15.703125 -27.039062 15.515625 -26.59375 L 8.953125 -12.578125 Z M 27.90625 0 L 24.5 0 C 24.101562 0 23.789062 -0.0976562 23.5625 -0.296875 C 23.34375 -0.492188 23.1875 -0.75 23.09375 -1.0625 L 21.25 -9.359375 L 7.4375 -9.359375 L 3.546875 -1.0625 C 3.410156 -0.78125 3.195312 -0.53125 2.90625 -0.3125 C 2.613281 -0.101562 2.285156 0 1.921875 0 L -1.546875 0 L 15.09375 -33.9375 L 19.59375 -33.9375 Z M 27.90625 0 "/></g></g></g><g fill="#000000" fill-opacity="1"><g transform="translate(284.145608, 45.888151)"><g><path d="M 21.953125 -28.6875 C 21.785156 -28.46875 21.617188 -28.296875 21.453125 -28.171875 C 21.296875 -28.054688 21.109375 -28 20.890625 -28 C 20.617188 -28 20.332031 -28.132812 20.03125 -28.40625 C 19.738281 -28.6875 19.359375 -28.988281 18.890625 -29.3125 C 18.421875 -29.632812 17.851562 -29.929688 17.1875 -30.203125 C 16.53125 -30.484375 15.703125 -30.625 14.703125 -30.625 C 13.691406 -30.625 12.789062 -30.46875 12 -30.15625 C 11.21875 -29.84375 10.550781 -29.410156 10 -28.859375 C 9.457031 -28.316406 9.046875 -27.679688 8.765625 -26.953125 C 8.484375 -26.222656 8.34375 -25.441406 8.34375 -24.609375 C 8.34375 -23.785156 8.53125 -23.09375 8.90625 -22.53125 C 9.28125 -21.976562 9.773438 -21.5 10.390625 -21.09375 C 11.015625 -20.6875 11.722656 -20.328125 12.515625 -20.015625 C 13.316406 -19.710938 14.125 -19.398438 14.9375 -19.078125 C 15.757812 -18.753906 16.570312 -18.394531 17.375 -18 C 18.175781 -17.601562 18.882812 -17.113281 19.5 -16.53125 C 20.113281 -15.945312 20.609375 -15.242188 20.984375 -14.421875 C 21.367188 -13.597656 21.5625 -12.601562 21.5625 -11.4375 C 21.5625 -9.832031 21.28125 -8.3125 20.71875 -6.875 C 20.164062 -5.445312 19.375 -4.195312 18.34375 -3.125 C 17.3125 -2.050781 16.0625 -1.195312 14.59375 -0.5625 C 13.125 0.0625 11.472656 0.375 9.640625 0.375 C 7.617188 0.375 5.8125 -0.0195312 4.21875 -0.8125 C 2.632812 -1.613281 1.332031 -2.691406 0.3125 -4.046875 L 1.875 -6.15625 C 2 -6.332031 2.15625 -6.472656 2.34375 -6.578125 C 2.53125 -6.691406 2.738281 -6.75 2.96875 -6.75 C 3.257812 -6.75 3.578125 -6.570312 3.921875 -6.21875 C 4.273438 -5.863281 4.71875 -5.46875 5.25 -5.03125 C 5.789062 -4.59375 6.457031 -4.195312 7.25 -3.84375 C 8.039062 -3.488281 9.023438 -3.3125 10.203125 -3.3125 C 11.296875 -3.3125 12.28125 -3.484375 13.15625 -3.828125 C 14.03125 -4.179688 14.769531 -4.664062 15.375 -5.28125 C 15.988281 -5.894531 16.460938 -6.628906 16.796875 -7.484375 C 17.128906 -8.347656 17.296875 -9.300781 17.296875 -10.34375 C 17.296875 -11.21875 17.101562 -11.941406 16.71875 -12.515625 C 16.34375 -13.097656 15.847656 -13.582031 15.234375 -13.96875 C 14.617188 -14.363281 13.914062 -14.707031 13.125 -15 C 12.332031 -15.289062 11.523438 -15.585938 10.703125 -15.890625 C 9.878906 -16.191406 9.070312 -16.53125 8.28125 -16.90625 C 7.5 -17.289062 6.800781 -17.773438 6.1875 -18.359375 C 5.570312 -18.941406 5.070312 -19.660156 4.6875 -20.515625 C 4.3125 -21.367188 4.125 -22.414062 4.125 -23.65625 C 4.125 -25.050781 4.375 -26.382812 4.875 -27.65625 C 5.382812 -28.9375 6.113281 -30.066406 7.0625 -31.046875 C 8.007812 -32.023438 9.164062 -32.804688 10.53125 -33.390625 C 11.894531 -33.984375 13.429688 -34.28125 15.140625 -34.28125 C 16.867188 -34.28125 18.425781 -33.945312 19.8125 -33.28125 C 21.207031 -32.613281 22.359375 -31.707031 23.265625 -30.5625 Z M 21.953125 -28.6875 "/></g></g></g><g fill="#000000" fill-opacity="1"><g transform="translate(308.208826, 45.888151)"><g><path d="M 10.5 -30.3125 L 9.09375 -18.875 L 21.109375 -18.875 L 20.65625 -15.390625 L 8.671875 -15.390625 L 7.21875 -3.59375 L 22.125 -3.59375 L 21.671875 0 L 2.328125 0 L 6.484375 -33.9375 L 25.8125 -33.9375 L 25.375 -30.3125 Z M 10.5 -30.3125 "/></g></g></g></svg>